<svg xmlns="http://www.w3.org/2000/svg" viewBox="0 0 32 32" fill="none" role="img" aria-label="DiffsHub"><circle cx="16" cy="16" r="16" fill="#1f2937"/><path fill="#22c55e" d="M11 6.625c-.621 0-1.125.504-1.125 1.125v2.125H7.75a1.125 1.125 0 0 0 0 2.25h2.125v2.125a1.125 1.125 0 0 0 2.25 0v-2.125h2.125a1.125 1.125 0 0 0 0-2.25h-2.125V7.75c0-.621-.504-1.125-1.125-1.125"/><path fill="#22c55e" d="M21 16.625c-.621 0-1.125.504-1.125 1.125v2.125H17.75a1.125 1.125 0 0 0 0 2.25h2.125v2.125a1.125 1.125 0 0 0 2.25 0v-2.125h2.125a1.125 1.125 0 0 0 0-2.25h-2.125V17.75c0-.621-.504-1.125-1.125-1.125"/><path fill="#ef4444" d="M8.75 19.875a1.125 1.125 0 0 0 0 2.25h4.5a1.125 1.125 0 0 0 0-2.25z"/><path fill="#ef4444" d="M18.75 9.875a1.125 1.125 0 0 0 0 2.25h4.5a1.125 1.125 0 0 0 0-2.25z"/></svg>
